<svg width="32" height="28" viewBox="0 0 32 28" fill="none" xmlns="http://www.w3.org/2000/svg">
<path d="M4.2921 16.7258C4.2921 17.926 4.86357 18.9935 5.74697 19.6744C2.93424 20.6541 0.905 23.4091 0.905 26.6451C0.905 26.9652 1.16382 27.224 1.48387 27.224H14.5261C14.8462 27.224 15.105 26.9652 15.105 26.6451C15.105 23.4154 13.0839 20.6639 10.2795 19.6793C11.1663 18.9986 11.7402 17.9285 11.7402 16.7258C11.7402 14.672 10.0699 13.0017 8.01613 13.0017C5.96237 13.0017 4.2921 14.672 4.2921 16.7258ZM5.44984 16.7258C5.44984 15.3111 6.6015 14.1595 8.01613 14.1595C9.43076 14.1595 10.5824 15.3111 10.5824 16.7258C10.5824 18.1404 9.43076 19.2921 8.01613 19.2921C6.6015 19.2921 5.44984 18.1404 5.44984 16.7258ZM13.9213 26.0662H2.0882C2.36944 22.9173 4.91891 20.4498 8.00452 20.4498C11.0911 20.4498 13.6401 22.9173 13.9213 26.0662Z" fill="black" stroke="black" stroke-width="0.19"/>
<path d="M27.2238 8.74188V8.64688H27.1288H24.709H24.614V8.74188V9.70962V9.80462H24.709H27.1288H27.2238V9.70962V8.74188Z" fill="black" stroke="black" stroke-width="0.19"/>
<path d="M13.6337 16.3866L13.6337 16.3867C13.7454 16.5111 13.9029 16.5789 14.0644 16.5789C14.122 16.5789 14.1786 16.5701 14.2339 16.5536L14.2346 16.5534L20.4411 14.6434H21.8063C24.4434 14.6434 26.7622 13.9235 28.4243 12.7199C30.0872 11.5157 31.0949 9.82492 31.0949 7.89129C31.0949 5.95357 30.0154 4.2048 28.2891 2.94399C26.5627 1.68309 24.1837 0.905 21.5644 0.905C18.945 0.905 16.5661 1.68309 14.8397 2.94399C13.1133 4.2048 12.0339 5.95357 12.0339 7.89129C12.0339 9.73926 13.0412 11.5111 14.799 12.8165L13.5324 15.7719C13.4438 15.9786 13.4832 16.2188 13.6337 16.3866ZM20.1842 13.5111L20.184 13.5111L15.0889 15.079L16.0485 12.8395L16.0485 12.8395C16.1634 12.5711 16.0601 12.2634 15.8149 12.1164C14.1391 10.9994 13.1916 9.45779 13.1916 7.89129C13.1916 6.29786 14.1182 4.843 15.6341 3.78256C17.1497 2.72237 19.2471 2.06274 21.5644 2.06274C23.8817 2.06274 25.9791 2.72237 27.4946 3.78256C29.0105 4.843 29.9371 6.29786 29.9371 7.89129C29.9371 9.4749 29.0745 10.8706 27.6236 11.8741C26.1721 12.8781 24.1354 13.4856 21.8063 13.4856H20.3542C20.2963 13.4856 20.2391 13.4943 20.1842 13.5111Z" fill="black" stroke="black" stroke-width="0.19"/>
<path d="M27.2242 6.8064V6.7114H27.1292H20.8389H20.7439V6.8064V7.77414V7.86914H20.8389H27.1292H27.2242V7.77414V6.8064Z" fill="black" stroke="black" stroke-width="0.19"/>
<path d="M19.966 6.8064V6.7114H19.871H16H15.905V6.8064V7.77414V7.86914H16H19.871H19.966V7.77414V6.8064Z" fill="black" stroke="black" stroke-width="0.19"/>
<path d="M23.8369 8.74188V8.64688H23.7419H16H15.905V8.74188V9.70962V9.80462H16H23.7419H23.8369V9.70962V8.74188Z" fill="black" stroke="black" stroke-width="0.19"/>
</svg>
