<svg width="45" height="45" viewBox="0 0 45 45" fill="none" xmlns="http://www.w3.org/2000/svg">
<path d="M20.8321 43.1249C20.6147 43.1247 20.399 43.0866 20.1946 43.0124C19.8004 42.8681 19.466 42.5956 19.245 42.2387C19.0241 41.8817 18.9293 41.4609 18.9759 41.0437L20.4196 27.7499H9.37587C9.03525 27.7505 8.70091 27.6582 8.40878 27.483C8.11664 27.3078 7.87775 27.0564 7.71775 26.7556C7.55776 26.4549 7.4827 26.1163 7.50065 25.7761C7.5186 25.436 7.62887 25.1071 7.81963 24.8249L22.6134 2.69994C22.8474 2.3537 23.1903 2.09554 23.5877 1.96646C23.9852 1.83737 24.4144 1.84475 24.8071 1.98744C25.1847 2.12762 25.5071 2.38566 25.7266 2.72336C25.9461 3.06105 26.0511 3.46046 26.0259 3.86244L24.5821 17.2499H35.6259C35.9665 17.2494 36.3008 17.3417 36.593 17.5169C36.8851 17.6921 37.124 17.9435 37.284 18.2442C37.444 18.545 37.519 18.8836 37.5011 19.2237C37.4832 19.5639 37.3729 19.8927 37.1821 20.1749L22.3884 42.2999C22.2164 42.5544 21.9845 42.7627 21.7132 42.9066C21.4418 43.0504 21.1393 43.1254 20.8321 43.1249Z" fill="#FAD201"/>
</svg>
