<svg width="33" height="27" viewBox="0 0 33 27" fill="none" xmlns="http://www.w3.org/2000/svg">
<path d="M1.23831 26.5079H30.5615C30.7998 26.5079 31.0007 26.3138 30.994 26.0674V21.2124C30.994 20.9712 30.7979 20.7751 30.5566 20.7751H1.23831C0.99708 20.7751 0.800977 20.9712 0.800977 21.2124V26.0706C0.800977 26.3118 0.99708 26.5079 1.23831 26.5079ZM30.1241 21.6498V25.6332H1.68049V21.6498H30.1241Z" fill="white" stroke="white" stroke-width="0.4"/>
<path d="M29.0537 7.48074V7.48028L29.0682 1.24218L29.0682 1.24171L29.2682 1.24218L29.0537 7.48074ZM29.0537 7.48074C29.0537 7.59417 29.0942 7.71304 29.1886 7.80018M29.0537 7.48074L29.1886 7.80018M31.7089 0.8L31.7094 0.8C31.9503 0.8 32.1462 0.995572 32.1467 1.23635L32.1467 1.2356L31.7089 0.8ZM31.7089 0.8L29.5055 0.804844L31.7089 0.8ZM29.4044 7.91433L29.4219 7.93187L29.5105 7.92753L31.7821 7.81612L31.7822 7.81618L31.7871 7.81582C32.022 7.79842 32.2 7.60521 32.2 7.37418L32.2 7.37245L32.1467 1.23734L29.1925 7.80377C29.1912 7.80258 29.1899 7.80138 29.1886 7.80018M29.4044 7.91433C29.4326 7.92001 29.4616 7.92292 29.491 7.92292V7.73745C29.491 7.92292 29.4909 7.92292 29.4908 7.92292H29.4906L29.4902 7.92292L29.4894 7.92292L29.4879 7.9229L29.4846 7.92282L29.4779 7.92249C29.4734 7.92218 29.4686 7.9217 29.4636 7.92099C29.4536 7.91956 29.4425 7.91717 29.4308 7.91327C29.4067 7.90522 29.3813 7.8912 29.3593 7.86917L29.4044 7.91433ZM29.4044 7.91433C29.3233 7.898 29.2486 7.8588 29.1886 7.80018M21.9558 17.2563C21.9538 17.0167 21.7584 16.8226 21.5184 16.8226H15.7279H9.93738C9.69615 16.8226 9.50005 17.0187 9.50005 17.26C9.50005 17.5012 9.69615 17.6973 9.93738 17.6973H21.5184C21.7591 17.6973 21.9629 17.5056 21.9558 17.2563ZM21.9558 17.2563C21.9558 17.2575 21.9558 17.2587 21.9558 17.26H21.7558L21.9556 17.2526C21.9557 17.2538 21.9557 17.2551 21.9558 17.2563ZM30.1855 21.4346L30.1865 21.4363C30.2659 21.5687 30.4082 21.6497 30.5614 21.6497C30.6444 21.6497 30.7203 21.6205 30.772 21.5947L30.772 21.5948L30.7778 21.5916C30.9956 21.4737 31.0666 21.1964 30.9416 20.989C30.9412 20.9884 30.9409 20.9878 30.9406 20.9873L26.3135 13.0931C26.2349 12.9498 26.0809 12.8751 25.9358 12.8751H21.8016C21.5604 12.8751 21.3643 13.0712 21.3643 13.3124C21.3643 13.5537 21.5604 13.7498 21.8016 13.7498H25.6808L30.1855 21.4346ZM1.02677 21.5965L1.02672 21.5966L1.03258 21.5995C1.09579 21.6311 1.16497 21.6497 1.23827 21.6497C1.3963 21.6497 1.54356 21.5592 1.62086 21.4218L1.62102 21.4215L3.80064 17.5321L5.92297 13.7449H9.85504C10.0963 13.7449 10.2924 13.5488 10.2924 13.3076C10.2924 13.0664 10.0963 12.8703 9.85504 12.8703H5.66532C5.50788 12.8703 5.36272 12.9511 5.28273 13.0933L5.28255 13.0936L3.06902 17.046L0.855498 20.9984L0.855481 20.9984L0.854137 21.0009C0.741731 21.2084 0.807647 21.4778 1.02677 21.5965ZM31.3188 6.95611L29.9289 7.02373L29.9424 1.6838L31.2738 1.68007L31.3188 6.95611Z" fill="white" stroke="white" stroke-width="0.4"/>
<path d="M16.4494 6.48585L16.4494 6.48588L16.4526 6.48793C16.5209 6.53057 16.6057 6.55708 16.6894 6.55708C16.8301 6.55708 16.9736 6.48762 17.0564 6.35357C18.2398 4.59161 19.6522 3.35792 21.2802 2.64544C22.9092 1.93254 24.768 1.73535 26.8534 2.06935C27.7284 2.21111 28.5223 2.28476 29.2785 2.2995C29.2786 2.29951 29.2788 2.29951 29.2789 2.29951L29.4913 2.30434L29.4913 2.30439H29.4959H29.5007C29.7354 2.30439 29.9361 2.12034 29.9381 1.87561C29.9449 1.63497 29.7508 1.43118 29.5082 1.42973L29.297 1.42493V1.42492L29.2951 1.42489C28.585 1.41536 27.8296 1.34384 26.9945 1.20945L26.9944 1.20945C24.7472 0.848421 22.7191 1.05687 20.9297 1.84004C19.1412 2.62281 17.6052 3.97356 16.3313 5.87493C16.1881 6.07613 16.2458 6.35307 16.4494 6.48585Z" fill="white" stroke="white" stroke-width="0.4"/>
<path d="M19.9789 11.0628L19.9787 11.0624C19.6113 10.4181 19.7026 9.75116 19.9843 9.14395C20.2636 8.54205 20.7399 7.9743 21.1879 7.49468C21.4776 7.18266 21.6418 6.82276 21.6626 6.48522C21.6803 6.19328 21.6054 6.09911 21.5314 6.06169C21.4705 6.03222 21.3651 6.01294 21.2071 6.0284C21.0512 6.04365 20.8592 6.0913 20.6386 6.1781C20.1978 6.35157 19.6603 6.67454 19.0981 7.17062L18.9658 7.02065M19.9789 11.0628L25.279 8.21833C23.7839 9.55914 22.5488 10.4188 21.4988 10.8614C21.2195 10.9789 20.8787 10.8643 20.7375 10.6214C20.5812 10.3475 20.5636 10.0313 20.7295 9.62168C20.8992 9.20294 21.2558 8.70132 21.8289 8.0874C22.2485 7.64179 22.5039 7.09581 22.5413 6.54003L22.5414 6.53835C22.5627 6.17731 22.4943 5.90007 22.3706 5.69005C22.2469 5.48016 22.077 5.35303 21.9213 5.27661L21.9206 5.27629C21.4982 5.07094 20.9389 5.12859 20.3617 5.34792C19.7767 5.57025 19.1352 5.97232 18.5185 6.51719L18.5185 6.51718L18.5171 6.51841C18.3402 6.67763 18.32 6.95405 18.4829 7.13507C18.6421 7.31198 18.9185 7.33223 19.0996 7.16931L18.9658 7.02065M19.9789 11.0628C20.2449 11.5268 20.7498 11.793 21.2665 11.793C21.4603 11.793 21.659 11.7546 21.8439 11.6635C23.001 11.1756 24.3166 10.2537 25.8608 8.8698C26.7475 8.07643 27.9075 7.58445 29.1255 7.47662C29.1256 7.47661 29.1258 7.4766 29.1259 7.47658L29.5251 7.44291C29.5255 7.44288 29.5259 7.44285 29.5262 7.44282C29.7704 7.42408 29.9452 7.2086 29.9277 6.97197C29.9103 6.737 29.7072 6.54384 29.4528 6.56965L29.0527 6.6034L29.0526 6.60341M19.9789 11.0628L29.0526 6.60341M18.9658 7.02065C18.8689 7.10783 18.7187 7.09815 18.6316 7.00128C18.5444 6.9044 18.5541 6.75425 18.6509 6.66707M18.9658 7.02065C20.1185 6.00349 21.1938 5.67413 21.6201 5.8824L18.6509 6.66707M18.6509 6.66707C19.857 5.60147 21.1357 5.11711 21.8332 5.45617L18.6509 6.66707ZM29.0526 6.60341C27.6444 6.72325 26.3051 7.29736 25.2791 8.21827L29.0526 6.60341ZM16.9944 10.6146C16.9993 10.7454 17.1252 10.8471 17.2414 10.8471C17.3722 10.8423 17.4788 10.7309 17.4739 10.6001C17.4594 10.1448 17.2705 9.72338 16.9363 9.40855L16.9944 10.6146ZM16.9944 10.6146C16.9847 10.2852 16.8491 9.98009 16.6069 9.75244L16.9944 10.6146ZM14.4549 12.0437L14.4551 12.0439C14.8118 12.379 15.2773 12.5631 15.7641 12.5631H15.7643H15.7644H15.7645H15.7646H15.7647H15.7648H15.7649H15.765H15.7652H15.7653H15.7654H15.7655H15.7656H15.7657H15.7658H15.7659H15.7661H15.7662H15.7663H15.7664H15.7665H15.7666H15.7667H15.7668H15.7669H15.7671H15.7672H15.7673H15.7674H15.7675H15.7676H15.7677H15.7678H15.7679H15.7681H15.7682H15.7683H15.7684H15.7685H15.7686H15.7687H15.7688H15.7689H15.769H15.7691H15.7693H15.7694H15.7695H15.7696H15.7697H15.7698H15.7699H15.77H15.7701H15.7702H15.7703H15.7704H15.7705H15.7707H15.7708H15.7709H15.771H15.7711H15.7712H15.7713H15.7714H15.7715H15.7716H15.7717H15.7718H15.7719H15.772H15.7721H15.7723H15.7724H15.7725H15.7726H15.7727H15.7728H15.7729H15.773H15.7731H15.7732H15.7733H15.7734H15.7735H15.7736H15.7737H15.7738H15.7739H15.774H15.7741H15.7743H15.7744H15.7745H15.7746H15.7747H15.7748H15.7749H15.775H15.7751H15.7752H15.7753H15.7754H15.7755H15.7756H15.7757H15.7758H15.7759H15.776H15.7761H15.7762H15.7763H15.7764H15.7765H15.7766H15.7767H15.7768H15.7769H15.777H15.7771H15.7772H15.7773H15.7774H15.7775H15.7776H15.7777H15.7778H15.7779H15.778H15.7781H15.7782H15.7783H15.7784H15.7785H15.7786H15.7787H15.7788H15.7789H15.779H15.7792H15.7793H15.7793H15.7794H15.7795H15.7796H15.7797H15.7798H15.7799H15.78H15.7801H15.7802H15.7803H15.7804H15.7805H15.7806H15.7807H15.7808H15.7809H15.781H15.7811H15.7812H15.7813H15.7814H15.7815H15.7816H15.7817H15.7818H15.7819H15.782H15.7821H15.7822H15.7823H15.7824H15.7825H15.7826H15.7827H15.7828H15.7829H15.783H15.7831H15.7832H15.7833H15.7834H15.7835H15.7836H15.7837H15.7838H15.7839H15.784H15.7841H15.7842H15.7842H15.7843H15.7844H15.7845H15.7846H15.7847H15.7848H15.7849H15.785H15.7851H15.7852H15.7853H15.7854H15.7855H15.7856H15.7857H15.7858H15.7859H15.786H15.7861H15.7862H15.7863H15.7863H15.7864H15.7865H15.7866H15.7867H15.7868H15.7869H15.787H15.7871H15.7872H15.7873H15.7874H15.7875H15.7876H15.7877H15.7878H15.7879H15.7879H15.788H15.7881H15.7882H15.7883H15.7884H15.7885H15.7886H15.7887H15.7888H15.7889H15.789H15.7891H15.7892H15.7893H15.7893H15.7894H15.7895H15.7896H15.7897H15.7898H15.7899H15.79H15.7901H15.7902H15.7903H15.7904H15.7905H15.7905H15.7906H15.7907H15.7908H15.7909H15.791H15.7911H15.7912H15.7913H15.7914H15.7915H15.7916H15.7916H15.7917H15.7918H15.7919H15.792H15.7921H15.7922H15.7923H15.7924H15.7925H15.7926H15.7926H15.7927H15.7928H15.7929H15.793H15.7931H15.7932H15.7933H15.7934H15.7935H15.7936H15.7936H15.7937H15.7938H15.7939H15.794H15.7941H15.7942H15.7943H15.7944H15.7945H15.7945H15.7946H15.7947H15.7948H15.7949H15.795H15.7951H15.7952H15.7953H15.7954H15.7954H15.7955H15.7956H15.7957H15.7958H15.7959H15.796H15.7961H15.7962H15.7962H15.7963H15.7964H15.7965H15.7966H15.7967H15.7968H15.7969H15.797H15.797H15.7971H15.7972H15.7973H15.7974H15.7975H15.7976H15.7977H15.7978H15.7978H15.7979H15.798H15.7981H15.7982H15.7983H15.7984H15.7985H15.7985H15.7986H15.7987H15.7988H15.7989H15.799H15.7991H15.7992H15.7992H15.7993H15.7994H15.7995H15.7996H15.7997H15.7998H15.7999H15.8H15.8H15.8001H15.8002H15.8003H15.8004H15.8005H15.8006H15.8006H15.8007H15.8008H15.8009H15.801H15.8011H15.8012H15.8013H15.8013H15.8014H15.8015H15.8016H15.8017H15.8018H15.8019H15.802H15.802H15.8021H15.8022H15.8023H15.8024H15.8025H15.8026H15.8026H15.8027H15.8028H15.8029H15.803H15.8031H15.8032H15.8033H15.8033H15.8034H15.8035H15.8036H15.8037H15.8038H15.8039H15.8039H15.804H15.8041H15.8042H15.8043H15.8044H15.8045H15.8045H15.8046H15.8047H15.8048H15.8049H15.805H15.8051H15.8051H15.8052H15.8053H15.8054H15.8055H15.8056H15.8057H15.8058H15.8058H15.8059H15.806H15.8061H15.8062H15.8063H15.8064H15.8064H15.8065H15.8066H15.8067H15.8068H15.8069H15.807H15.807H15.8071H15.8072H15.8073H15.8074H15.8075H15.8075H15.8076H15.8077H15.8078H15.8079H15.808H15.8081H15.8081H15.8082H15.8083H15.8084H15.8085H15.8086H15.8087H15.8087H15.8088H15.8089H15.809H15.8091H15.8092H15.8093H15.8093H15.8094H15.8095H15.8096H15.8097H15.8098H15.8099H15.8099H15.81H15.8101H15.8102H15.8103H15.8104H15.8105H15.8105H15.8106H15.8107H15.8108H15.8109H15.811H15.811H15.8111H15.8112H15.8113H15.8114H15.8115H15.8116H15.8116H15.8117H15.8118H15.8119H15.812H15.8121H15.8122H15.8122H15.8123H15.8124H15.8125H15.8126V12.5633L15.82 12.563C16.0576 12.5542 16.254 12.3533 16.2449 12.1087C16.2354 11.8503 16.0124 11.6995 15.8134 11.6842L15.8014 11.6833L15.7894 11.6838C15.5121 11.6959 15.2587 11.5966 15.0535 11.4037L14.9165 11.5494L15.0535 11.4037C14.8504 11.2128 14.7371 10.9581 14.7289 10.6814C14.7208 10.4034 14.8185 10.1412 15.0076 9.94417L15.0076 9.94417L15.009 9.9427C15.1999 9.73958 15.4546 9.62629 15.7313 9.61815C16.0182 9.60999 16.2709 9.70729 16.4685 9.89678L16.4685 9.89679L16.4699 9.89817C16.6731 10.0891 16.7864 10.3438 16.7945 10.6205L16.7946 10.622C16.7993 10.7513 16.8635 10.8578 16.9427 10.9288C17.0207 10.9988 17.1274 11.0471 17.2414 11.0471V11.0472L17.2488 11.047C17.4862 11.0382 17.6823 10.8379 17.6738 10.5937C17.6576 10.0856 17.4462 9.61414 17.0734 9.26297C16.6997 8.91089 16.2173 8.73285 15.7067 8.74361L15.7067 8.74359L15.7045 8.74366C15.1964 8.75988 14.7249 8.97127 14.3738 9.34406C14.0225 9.71689 13.8382 10.2044 13.8545 10.713C13.8707 11.2211 14.0821 11.6926 14.4549 12.0437Z" fill="white" stroke="white" stroke-width="0.4"/>
<path d="M19.499 6.87537H12.0491C11.8167 6.87561 11.5939 6.96803 11.4296 7.13235C11.2653 7.29666 11.1729 7.51945 11.1726 7.75183V13.2297C11.1729 13.4621 11.2653 13.6849 11.4296 13.8492C11.5939 14.0135 11.8167 14.1059 12.0491 14.1062H13.9282C13.9952 14.1064 14.0612 14.1219 14.1213 14.1514C14.1814 14.1809 14.234 14.2237 14.2751 14.2765L15.242 15.5287C15.303 15.6085 15.3818 15.6731 15.4719 15.7174C15.5621 15.7617 15.6613 15.7846 15.7618 15.7842H15.773C15.8753 15.783 15.9759 15.7577 16.0666 15.7104C16.1573 15.6631 16.2356 15.595 16.2951 15.5118L17.179 14.2878C17.2197 14.2316 17.2731 14.1859 17.3349 14.1543C17.3967 14.1227 17.4651 14.1062 17.5344 14.1062H19.499C19.7314 14.1059 19.9542 14.0135 20.1185 13.8492C20.2828 13.6849 20.3752 13.4621 20.3755 13.2297V7.75183C20.3752 7.51945 20.2828 7.29665 20.1185 7.13233C19.9542 6.96801 19.7314 6.8756 19.499 6.87537Z" fill="white"/>
<path d="M15.7741 11.1481C16.0766 11.1481 16.3219 10.9029 16.3219 10.6003C16.3219 10.2978 16.0766 10.0525 15.7741 10.0525C15.4716 10.0525 15.2263 10.2978 15.2263 10.6003C15.2263 10.9029 15.4716 11.1481 15.7741 11.1481Z" fill="black"/>
<path d="M14.0212 11.1481C14.3237 11.1481 14.569 10.9029 14.569 10.6003C14.569 10.2978 14.3237 10.0525 14.0212 10.0525C13.7186 10.0525 13.4734 10.2978 13.4734 10.6003C13.4734 10.9029 13.7186 11.1481 14.0212 11.1481Z" fill="black"/>
<path d="M17.527 11.1481C17.8296 11.1481 18.0748 10.9029 18.0748 10.6003C18.0748 10.2978 17.8296 10.0525 17.527 10.0525C17.2245 10.0525 16.9792 10.2978 16.9792 10.6003C16.9792 10.9029 17.2245 11.1481 17.527 11.1481Z" fill="black"/>
</svg>
