<svg width="38" height="38" viewBox="0 0 38 38" fill="none" xmlns="http://www.w3.org/2000/svg">
<path d="M12.6667 16.2291C16.3831 16.2291 19.3958 13.2163 19.3958 9.49992C19.3958 5.7835 16.3831 2.77075 12.6667 2.77075C8.95025 2.77075 5.9375 5.7835 5.9375 9.49992C5.9375 13.2163 8.95025 16.2291 12.6667 16.2291Z" fill="#1467C4"/>
<path d="M15.8327 17.8125H9.49935C7.50547 17.815 5.59398 18.6082 4.18409 20.0181C2.77421 21.428 1.98103 23.3395 1.97852 25.3333V31.6667C1.97852 31.9816 2.10363 32.2837 2.32633 32.5064C2.54903 32.7291 2.85107 32.8542 3.16602 32.8542H22.166C22.481 32.8542 22.783 32.7291 23.0057 32.5064C23.2284 32.2837 23.3535 31.9816 23.3535 31.6667V25.3333C23.351 23.3395 22.5578 21.428 21.1479 20.0181C19.7381 18.6082 17.8266 17.815 15.8327 17.8125Z" fill="#1467C4"/>
<path d="M26.5988 18.1988C29.8753 18.1988 32.5315 15.5426 32.5315 12.266C32.5315 8.98944 29.8753 6.33325 26.5988 6.33325C23.3222 6.33325 20.666 8.98944 20.666 12.266C20.666 15.5426 23.3222 18.1988 26.5988 18.1988Z" fill="#1467C4"/>
<path d="M36.0219 26.2199V31.8091C36.0194 32.0855 35.9085 32.3499 35.7131 32.5453C35.5177 32.7407 35.2533 32.8516 34.9769 32.8541H24.9386V25.3333C24.9361 23.2695 24.2264 21.2689 22.9277 19.665C23.2211 19.6197 23.5176 19.5985 23.8144 19.6016H29.3877C31.1449 19.6004 32.8306 20.2967 34.0746 21.5377C35.3186 22.7787 36.019 24.4628 36.0219 26.2199Z" fill="#1467C4"/>
</svg>
