<svg width="50" height="43" viewBox="0 0 50 43" fill="none" xmlns="http://www.w3.org/2000/svg">
<path d="M11.0176 37.7265L17.5732 31.4394C17.8613 31.1621 18.2324 31.0244 18.6035 31.0244L25.0908 31.0224C23.9199 31.5986 22.9336 32.4648 22.2041 34.0019H19.1973L10.6348 42.2148C10.3613 42.5166 9.96582 42.708 9.52637 42.708C8.70312 42.708 8.03516 42.04 8.03516 41.2168V34.0019H3.61719C2.62109 34.0019 1.71777 33.5918 1.06543 32.9385C0.408203 32.2812 0 31.374 0 30.3838V3.61816C0 2.62988 0.412109 1.72363 1.06836 1.06836C1.72363 0.412109 2.62988 0 3.61719 0H37.5352C38.5225 0 39.4316 0.40918 40.0889 1.06641C40.7422 1.71973 41.1523 2.62305 41.1523 3.61816V12.8174C40.1973 12.1445 39.1992 11.7383 38.1699 11.5654V3.61816C38.1699 3.44824 38.0967 3.29004 37.9805 3.17383C37.8623 3.05566 37.7031 2.98242 37.5352 2.98242H3.61719C3.45215 2.98242 3.29492 3.05762 3.17578 3.17578C3.05762 3.29492 2.98242 3.45215 2.98242 3.61816V30.3838C2.98242 30.5537 3.05566 30.7129 3.17285 30.831C3.28906 30.9473 3.44727 31.0195 3.61719 31.0195H9.52637C10.3496 31.0195 11.0176 31.6875 11.0176 32.5107V37.7265ZM24.9404 39.4853C24.7334 39.4853 24.5654 39.3174 24.5654 39.1103C24.5654 39.0029 24.5801 38.8974 24.6064 38.793C25.208 34.0244 27.3154 33.9414 29.9668 33.248C30.7588 33.042 32.2051 32.6006 33.0469 31.8633C33.5098 31.456 33.791 30.959 33.6787 30.3603C33.0381 29.7676 32.5449 29.125 32.4336 27.9004L32.3574 27.9014C32.1797 27.8994 32.0078 27.8594 31.8477 27.7685C31.4941 27.5674 31.2998 27.1816 31.207 26.7422C31.0957 26.2178 30.9619 24.7158 31.6768 24.416L31.6826 24.4141C31.5938 22.7588 31.874 20.1377 30.1738 19.623C33.5293 15.4756 37.3984 13.2197 40.3037 16.9092C43.54 17.0791 44.9834 21.8496 42.9736 24.416H42.8887C43.6035 24.7158 43.4688 26.2178 43.3584 26.7422C43.2646 27.1816 43.0713 27.5674 42.7178 27.7685C42.5576 27.8594 42.3857 27.8994 42.208 27.9014L42.1318 27.9004C42.0205 29.125 41.5273 29.7676 40.8867 30.3603C40.7744 30.959 41.0557 31.456 41.5186 31.8633C42.3604 32.6006 43.8057 33.042 44.5986 33.248C47.25 33.9414 49.3574 34.0244 49.959 38.793C49.9854 38.8974 50 39.0029 50 39.1103C50 39.3174 49.832 39.4853 49.625 39.4853H24.9404ZM10.2354 13.4111C9.41211 13.4111 8.74414 12.7432 8.74414 11.9199C8.74414 11.0967 9.41211 10.4287 10.2354 10.4287H30.5596C31.3838 10.4287 32.0508 11.0967 32.0508 11.9199C32.0508 12.7432 31.3838 13.4111 30.5596 13.4111H10.2354ZM10.2363 22.2383C9.41309 22.2383 8.74512 21.5713 8.74512 20.7471C8.74512 19.9238 9.41309 19.2568 10.2363 19.2568H24.082C24.9053 19.2568 25.5732 19.9238 25.5732 20.7471C25.5732 21.5713 24.9053 22.2383 24.082 22.2383H10.2363Z" fill="#1467C4"/>
</svg>
