<svg width="33" height="27" viewBox="0 0 33 27" fill="none" xmlns="http://www.w3.org/2000/svg">
<path d="M1.23831 26.5079H30.5615C30.7998 26.5079 31.0007 26.3138 30.994 26.0674V21.2124C30.994 20.9712 30.7979 20.7751 30.5566 20.7751H1.23831C0.99708 20.7751 0.800977 20.9712 0.800977 21.2124V26.0706C0.800977 26.3118 0.99708 26.5079 1.23831 26.5079ZM30.1241 21.6498V25.6332H1.68049V21.6498H30.1241Z" fill="black" stroke="black" stroke-width="0.4"/>
<path d="M29.0537 7.48074V7.48028L29.0682 1.24218L29.0682 1.24171L29.2682 1.24218L29.0537 7.48074ZM29.0537 7.48074C29.0537 7.59417 29.0942 7.71304 29.1886 7.80018M29.0537 7.48074L29.1886 7.80018M31.7089 0.8L31.7094 0.8C31.9503 0.8 32.1462 0.995572 32.1467 1.23635L32.1467 1.2356L31.7089 0.8ZM31.7089 0.8L29.5055 0.804844L31.7089 0.8ZM29.4044 7.91433L29.4219 7.93187L29.5105 7.92753L31.7821 7.81612L31.7822 7.81618L31.7871 7.81582C32.022 7.79842 32.2 7.60521 32.2 7.37418L32.2 7.37245L32.1467 1.23734L29.1925 7.80377C29.1912 7.80258 29.1899 7.80138 29.1886 7.80018M29.4044 7.91433C29.4326 7.92001 29.4616 7.92292 29.491 7.92292V7.73745C29.491 7.92292 29.4909 7.92292 29.4908 7.92292H29.4906L29.4902 7.92292L29.4894 7.92292L29.4879 7.9229L29.4846 7.92282L29.4779 7.92249C29.4734 7.92218 29.4686 7.9217 29.4636 7.92099C29.4536 7.91956 29.4425 7.91717 29.4308 7.91327C29.4067 7.90522 29.3813 7.8912 29.3593 7.86917L29.4044 7.91433ZM29.4044 7.91433C29.3233 7.898 29.2486 7.8588 29.1886 7.80018M21.9558 17.2563C21.9538 17.0167 21.7584 16.8226 21.5184 16.8226H15.7279H9.93738C9.69615 16.8226 9.50005 17.0187 9.50005 17.26C9.50005 17.5012 9.69615 17.6973 9.93738 17.6973H21.5184C21.7591 17.6973 21.9629 17.5056 21.9558 17.2563ZM21.9558 17.2563C21.9558 17.2575 21.9558 17.2587 21.9558 17.26H21.7558L21.9556 17.2526C21.9557 17.2538 21.9557 17.2551 21.9558 17.2563ZM30.1855 21.4346L30.1865 21.4363C30.2659 21.5687 30.4082 21.6497 30.5614 21.6497C30.6444 21.6497 30.7203 21.6205 30.772 21.5947L30.772 21.5948L30.7778 21.5916C30.9956 21.4737 31.0666 21.1964 30.9416 20.989C30.9412 20.9884 30.9409 20.9878 30.9406 20.9873L26.3135 13.0931C26.2349 12.9498 26.0809 12.8751 25.9358 12.8751H21.8016C21.5604 12.8751 21.3643 13.0712 21.3643 13.3124C21.3643 13.5537 21.5604 13.7498 21.8016 13.7498H25.6808L30.1855 21.4346ZM1.02677 21.5965L1.02672 21.5966L1.03258 21.5995C1.09579 21.6311 1.16497 21.6497 1.23827 21.6497C1.3963 21.6497 1.54356 21.5592 1.62086 21.4218L1.62102 21.4215L3.80064 17.5321L5.92297 13.7449H9.85504C10.0963 13.7449 10.2924 13.5488 10.2924 13.3076C10.2924 13.0664 10.0963 12.8703 9.85504 12.8703H5.66532C5.50788 12.8703 5.36272 12.9511 5.28273 13.0933L5.28255 13.0936L3.06902 17.046L0.855498 20.9984L0.855481 20.9984L0.854137 21.0009C0.741731 21.2084 0.807647 21.4778 1.02677 21.5965ZM31.3188 6.95611L29.9289 7.02373L29.9424 1.6838L31.2738 1.68007L31.3188 6.95611Z" fill="black" stroke="black" stroke-width="0.4"/>
<path d="M16.4494 6.48588L16.4494 6.48591L16.4526 6.48796C16.5209 6.5306 16.6057 6.55711 16.6894 6.55711C16.8301 6.55711 16.9736 6.48765 17.0564 6.3536C18.2398 4.59164 19.6522 3.35795 21.2802 2.64547C22.9092 1.93257 24.768 1.73538 26.8534 2.06938C27.7284 2.21114 28.5223 2.28479 29.2785 2.29954C29.2786 2.29954 29.2788 2.29954 29.2789 2.29954L29.4913 2.30437L29.4913 2.30442H29.4959H29.5007C29.7354 2.30442 29.9361 2.12037 29.9381 1.87564C29.9449 1.635 29.7508 1.43122 29.5082 1.42976L29.297 1.42496V1.42495L29.2951 1.42492C28.585 1.41539 27.8296 1.34388 26.9945 1.20948L26.9944 1.20948C24.7472 0.848451 22.7191 1.0569 20.9297 1.84007C19.1412 2.62284 17.6052 3.97359 16.3313 5.87496C16.1881 6.07616 16.2458 6.35311 16.4494 6.48588Z" fill="black" stroke="black" stroke-width="0.4"/>
<path d="M19.9792 11.0628L19.979 11.0624C19.6116 10.4181 19.7029 9.75116 19.9846 9.14395C20.2639 8.54205 20.7402 7.9743 21.1881 7.49468C21.4778 7.18266 21.642 6.82276 21.6629 6.48522C21.6805 6.19328 21.6057 6.09911 21.5317 6.06169C21.4708 6.03222 21.3654 6.01294 21.2073 6.0284C21.0514 6.04365 20.8594 6.0913 20.6388 6.1781C20.198 6.35157 19.6606 6.67454 19.0983 7.17062L18.966 7.02065M19.9792 11.0628L25.2793 8.21833C23.7841 9.55914 22.549 10.4188 21.499 10.8614C21.2197 10.9789 20.8789 10.8643 20.7377 10.6214C20.5814 10.3475 20.5639 10.0313 20.7298 9.62168C20.8994 9.20294 21.2561 8.70132 21.8292 8.0874C22.2488 7.64179 22.5041 7.09581 22.5416 6.54003L22.5417 6.53835C22.5629 6.17731 22.4946 5.90007 22.3708 5.69005C22.2471 5.48016 22.0773 5.35303 21.9215 5.27661L21.9209 5.27629C21.4984 5.07094 20.9391 5.12859 20.362 5.34792C19.7769 5.57025 19.1354 5.97232 18.5188 6.51719L18.5187 6.51718L18.5174 6.51841C18.3405 6.67763 18.3202 6.95405 18.4831 7.13507C18.6424 7.31198 18.9188 7.33223 19.0998 7.16931L18.966 7.02065M19.9792 11.0628C20.2451 11.5268 20.7501 11.793 21.2667 11.793C21.4606 11.793 21.6592 11.7546 21.8441 11.6635C23.0012 11.1756 24.3169 10.2537 25.861 8.8698C26.7478 8.07643 27.9077 7.58445 29.1257 7.47662C29.1259 7.47661 29.126 7.4766 29.1261 7.47658L29.5253 7.44291C29.5257 7.44288 29.5261 7.44285 29.5265 7.44282C29.7707 7.42408 29.9455 7.2086 29.928 6.97197C29.9105 6.737 29.7074 6.54384 29.453 6.56965L29.053 6.6034L29.0528 6.60341M19.9792 11.0628L29.0528 6.60341M18.966 7.02065C18.8691 7.10783 18.719 7.09815 18.6318 7.00128C18.5446 6.9044 18.5543 6.75425 18.6512 6.66707M18.966 7.02065C20.1188 6.00349 21.1941 5.67413 21.6203 5.8824L18.6512 6.66707M18.6512 6.66707C19.8572 5.60147 21.1359 5.11711 21.8334 5.45617L18.6512 6.66707ZM29.0528 6.60341C27.6446 6.72325 26.3054 7.29736 25.2793 8.21827L29.0528 6.60341ZM16.9947 10.6146C16.9995 10.7454 17.1254 10.8471 17.2417 10.8471C17.3725 10.8423 17.479 10.7309 17.4742 10.6001C17.4596 10.1448 17.2708 9.72338 16.9365 9.40855L16.9947 10.6146ZM16.9947 10.6146C16.985 10.2852 16.8494 9.98009 16.6072 9.75244L16.9947 10.6146ZM14.4551 12.0437L14.4553 12.0439C14.812 12.379 15.2775 12.5631 15.7644 12.5631H15.7645H15.7646H15.7647H15.7648H15.765H15.7651H15.7652H15.7653H15.7654H15.7655H15.7656H15.7657H15.7659H15.766H15.7661H15.7662H15.7663H15.7664H15.7665H15.7666H15.7667H15.7669H15.767H15.7671H15.7672H15.7673H15.7674H15.7675H15.7676H15.7677H15.7679H15.768H15.7681H15.7682H15.7683H15.7684H15.7685H15.7686H15.7687H15.7688H15.769H15.7691H15.7692H15.7693H15.7694H15.7695H15.7696H15.7697H15.7698H15.7699H15.77H15.7701H15.7703H15.7704H15.7705H15.7706H15.7707H15.7708H15.7709H15.771H15.7711H15.7712H15.7713H15.7714H15.7715H15.7716H15.7718H15.7719H15.772H15.7721H15.7722H15.7723H15.7724H15.7725H15.7726H15.7727H15.7728H15.7729H15.773H15.7731H15.7732H15.7733H15.7734H15.7736H15.7737H15.7738H15.7739H15.774H15.7741H15.7742H15.7743H15.7744H15.7745H15.7746H15.7747H15.7748H15.7749H15.775H15.7751H15.7752H15.7753H15.7754H15.7755H15.7756H15.7757H15.7758H15.7759H15.776H15.7762H15.7763H15.7764H15.7765H15.7766H15.7767H15.7768H15.7769H15.777H15.7771H15.7772H15.7773H15.7774H15.7775H15.7776H15.7777H15.7778H15.7779H15.778H15.7781H15.7782H15.7783H15.7784H15.7785H15.7786H15.7787H15.7788H15.7789H15.779H15.7791H15.7792H15.7793H15.7794H15.7795H15.7796H15.7797H15.7798H15.7799H15.78H15.7801H15.7802H15.7803H15.7804H15.7805H15.7806H15.7807H15.7808H15.7809H15.781H15.7811H15.7812H15.7813H15.7814H15.7815H15.7816H15.7817H15.7818H15.7819H15.782H15.7821H15.7822H15.7823H15.7824H15.7825H15.7826H15.7827H15.7828H15.7828H15.7829H15.783H15.7831H15.7832H15.7833H15.7834H15.7835H15.7836H15.7837H15.7838H15.7839H15.784H15.7841H15.7842H15.7843H15.7844H15.7845H15.7846H15.7847H15.7848H15.7849H15.785H15.7851H15.7852H15.7853H15.7854H15.7855H15.7855H15.7856H15.7857H15.7858H15.7859H15.786H15.7861H15.7862H15.7863H15.7864H15.7865H15.7866H15.7867H15.7868H15.7869H15.787H15.7871H15.7872H15.7873H15.7873H15.7874H15.7875H15.7876H15.7877H15.7878H15.7879H15.788H15.7881H15.7882H15.7883H15.7884H15.7885H15.7886H15.7887H15.7888H15.7888H15.7889H15.789H15.7891H15.7892H15.7893H15.7894H15.7895H15.7896H15.7897H15.7898H15.7899H15.79H15.7901H15.7901H15.7902H15.7903H15.7904H15.7905H15.7906H15.7907H15.7908H15.7909H15.791H15.7911H15.7912H15.7913H15.7913H15.7914H15.7915H15.7916H15.7917H15.7918H15.7919H15.792H15.7921H15.7922H15.7923H15.7923H15.7924H15.7925H15.7926H15.7927H15.7928H15.7929H15.793H15.7931H15.7932H15.7933H15.7933H15.7934H15.7935H15.7936H15.7937H15.7938H15.7939H15.794H15.7941H15.7942H15.7943H15.7943H15.7944H15.7945H15.7946H15.7947H15.7948H15.7949H15.795H15.7951H15.7951H15.7952H15.7953H15.7954H15.7955H15.7956H15.7957H15.7958H15.7959H15.796H15.796H15.7961H15.7962H15.7963H15.7964H15.7965H15.7966H15.7967H15.7968H15.7968H15.7969H15.797H15.7971H15.7972H15.7973H15.7974H15.7975H15.7976H15.7976H15.7977H15.7978H15.7979H15.798H15.7981H15.7982H15.7983H15.7983H15.7984H15.7985H15.7986H15.7987H15.7988H15.7989H15.799H15.7991H15.7991H15.7992H15.7993H15.7994H15.7995H15.7996H15.7997H15.7998H15.7998H15.7999H15.8H15.8001H15.8002H15.8003H15.8004H15.8005H15.8005H15.8006H15.8007H15.8008H15.8009H15.801H15.8011H15.8012H15.8012H15.8013H15.8014H15.8015H15.8016H15.8017H15.8018H15.8019H15.8019H15.802H15.8021H15.8022H15.8023H15.8024H15.8025H15.8025H15.8026H15.8027H15.8028H15.8029H15.803H15.8031H15.8032H15.8032H15.8033H15.8034H15.8035H15.8036H15.8037H15.8038H15.8038H15.8039H15.804H15.8041H15.8042H15.8043H15.8044H15.8044H15.8045H15.8046H15.8047H15.8048H15.8049H15.805H15.805H15.8051H15.8052H15.8053H15.8054H15.8055H15.8056H15.8057H15.8057H15.8058H15.8059H15.806H15.8061H15.8062H15.8063H15.8063H15.8064H15.8065H15.8066H15.8067H15.8068H15.8069H15.8069H15.807H15.8071H15.8072H15.8073H15.8074H15.8075H15.8075H15.8076H15.8077H15.8078H15.8079H15.808H15.8081H15.8081H15.8082H15.8083H15.8084H15.8085H15.8086H15.8086H15.8087H15.8088H15.8089H15.809H15.8091H15.8092H15.8092H15.8093H15.8094H15.8095H15.8096H15.8097H15.8098H15.8098H15.8099H15.81H15.8101H15.8102H15.8103H15.8104H15.8104H15.8105H15.8106H15.8107H15.8108H15.8109H15.811H15.811H15.8111H15.8112H15.8113H15.8114H15.8115H15.8115H15.8116H15.8117H15.8118H15.8119H15.812H15.8121H15.8121H15.8122H15.8123H15.8124H15.8125H15.8126H15.8127H15.8127H15.8128V12.5633L15.8202 12.563C16.0579 12.5542 16.2542 12.3533 16.2452 12.1087C16.2356 11.8503 16.0127 11.6995 15.8136 11.6842L15.8016 11.6833L15.7896 11.6838C15.5124 11.6959 15.259 11.5966 15.0537 11.4037L14.9168 11.5494L15.0537 11.4037C14.8506 11.2128 14.7373 10.9581 14.7292 10.6814C14.721 10.4034 14.8188 10.1412 15.0078 9.94417L15.0078 9.94417L15.0092 9.9427C15.2001 9.73958 15.4548 9.62629 15.7315 9.61815C16.0185 9.60999 16.2712 9.70729 16.4687 9.89678L16.4687 9.89679L16.4702 9.89817C16.6733 10.0891 16.7866 10.3438 16.7947 10.6205L16.7948 10.622C16.7996 10.7513 16.8637 10.8578 16.9429 10.9288C17.021 10.9988 17.1277 11.0471 17.2417 11.0471V11.0472L17.2491 11.047C17.4864 11.0382 17.6826 10.8379 17.6741 10.5937C17.6579 10.0856 17.4465 9.61414 17.0737 9.26297C16.6999 8.91089 16.2176 8.73285 15.7069 8.74361L15.7069 8.74359L15.7047 8.74366C15.1967 8.75988 14.7252 8.97127 14.374 9.34406C14.0228 9.71689 13.8385 10.2044 13.8547 10.713C13.8709 11.2211 14.0823 11.6926 14.4551 12.0437Z" fill="black" stroke="black" stroke-width="0.4"/>
<path d="M19.4987 6.87537H12.0488C11.8164 6.87561 11.5937 6.96803 11.4293 7.13235C11.265 7.29666 11.1726 7.51945 11.1724 7.75183V13.2297C11.1726 13.4621 11.265 13.6849 11.4293 13.8492C11.5937 14.0135 11.8164 14.1059 12.0488 14.1062H13.928C13.9949 14.1064 14.061 14.1219 14.1211 14.1514C14.1811 14.1809 14.2337 14.2237 14.2749 14.2765L15.2417 15.5287C15.3028 15.6085 15.3815 15.6731 15.4717 15.7174C15.5619 15.7617 15.6611 15.7846 15.7616 15.7842H15.7727C15.875 15.783 15.9756 15.7577 16.0663 15.7104C16.157 15.6631 16.2353 15.595 16.2948 15.5118L17.1788 14.2878C17.2195 14.2316 17.2729 14.1859 17.3347 14.1543C17.3964 14.1227 17.4648 14.1062 17.5342 14.1062H19.4987C19.7311 14.1059 19.9539 14.0135 20.1182 13.8492C20.2826 13.6849 20.375 13.4621 20.3752 13.2297V7.75183C20.375 7.51945 20.2826 7.29665 20.1182 7.13233C19.9539 6.96801 19.7311 6.8756 19.4987 6.87537Z" fill="black"/>
<path d="M15.7739 11.1481C16.0764 11.1481 16.3217 10.9029 16.3217 10.6003C16.3217 10.2978 16.0764 10.0526 15.7739 10.0526C15.4713 10.0526 15.2261 10.2978 15.2261 10.6003C15.2261 10.9029 15.4713 11.1481 15.7739 11.1481Z" fill="black"/>
<path d="M14.0209 11.1481C14.3235 11.1481 14.5687 10.9029 14.5687 10.6003C14.5687 10.2978 14.3235 10.0526 14.0209 10.0526C13.7184 10.0526 13.4731 10.2978 13.4731 10.6003C13.4731 10.9029 13.7184 11.1481 14.0209 11.1481Z" fill="black"/>
<path d="M17.5268 11.1481C17.8293 11.1481 18.0746 10.9029 18.0746 10.6003C18.0746 10.2978 17.8293 10.0526 17.5268 10.0526C17.2243 10.0526 16.979 10.2978 16.979 10.6003C16.979 10.9029 17.2243 11.1481 17.5268 11.1481Z" fill="black"/>
</svg>
