<svg width="48" height="48" viewBox="0 0 48 48" fill="none" xmlns="http://www.w3.org/2000/svg">
<g clip-path="url(#clip0_36_2254)">
<path d="M38.14 9.86L35.31 12.69C38.21 15.58 40 19.58 40 24C40 32.84 32.84 40 24 40C15.16 40 8 32.84 8 24C8 15.84 14.11 9.12 22 8.14V12.18C16.33 13.13 12 18.06 12 24C12 30.63 17.37 36 24 36C30.63 36 36 30.63 36 24C36 20.69 34.66 17.69 32.49 15.51L29.66 18.34C31.1586 19.8424 32.0001 21.8779 32 24C32 28.42 28.42 32 24 32C19.58 32 16 28.42 16 24C16 20.28 18.56 17.17 22 16.28V20.55C20.81 21.24 20 22.52 20 24C20 26.21 21.79 28 24 28C26.21 28 28 26.21 28 24C28 22.52 27.19 21.25 26 20.55V4H24C12.95 4 4 12.95 4 24C4 35.04 12.95 44 24 44C35.04 44 44 35.04 44 24C44 18.48 41.76 13.48 38.14 9.86Z" fill="#F52929"/>
</g>
<defs>
<clipPath id="clip0_36_2254">
<rect width="48" height="48" fill="white"/>
</clipPath>
</defs>
</svg>
